<?xml version="1.0" encoding="UTF-8" standalone="no"?>
<!DOCTYPE svg PUBLIC "-//W3C//DTD SVG 1.1//EN" "http://www.w3.org/Graphics/SVG/1.1/DTD/svg11.dtd">
<svg xmlns="http://www.w3.org/2000/svg" xmlns:xlink="http://www.w3.org/1999/xlink" version="1.1" width="363.7291pt" height="161.1736pt" viewBox="0 0 363.7291 161.1736">
<g enable-background="new">
<clipPath id="cp0">
<path transform="matrix(1,0,0,-1,1,160.1736)" d="M -107.5731 -299.291 L 487.70249 -299.291 L 487.70249 542.59878 L -107.5731 542.59878 Z " fill-rule="evenodd"/>
</clipPath>
<g clip-path="url(#cp0)">
<g id="Layer-1" data-name="Camada 1">
<path transform="matrix(1,0,0,-1,1,160.1736)" d="M 12.191 131.5664 C 13.1686 133.1354 15.2351 133.6099 16.8026 132.6376 C 18.3725 131.6554 18.8456 129.5977 17.8699 128.0333 L 16.8576 126.3986 C 15.878 124.829 13.8186 124.3474 12.2471 125.3268 C 10.6829 126.2996 10.1954 128.3666 11.1787 129.9407 Z M 77.5091 38.5166 L 77.5091 38.5166 C 76.5334 36.9522 74.4755 36.4683 72.8989 37.4457 C 71.331 38.4273 70.8545 40.4901 71.8245 42.054 C 81.7971 58.0768 74.2555 80.8503 55.0046 92.8406 L 47.3681 97.5943 C 24.9814 111.534 16.4693 138.4466 28.3955 157.5981 C 29.3675 159.1603 31.4416 159.6464 33.0077 158.667 C 34.5807 157.6899 35.0521 155.6226 34.0744 154.0514 C 24.1095 138.0427 31.6599 115.2618 50.904 103.2749 L 58.542 98.5153 C 80.93 84.581 89.4353 57.6703 77.5091 38.5166 Z M 24.2059 112.6449 L 24.2059 112.6449 C 25.772 111.6677 26.2545 109.6007 25.2734 108.0286 L 20.6084 100.531 C 19.6231 98.9595 17.564 98.4801 15.9942 99.4552 C 14.423 100.4394 13.9442 102.49 14.9182 104.0686 L 19.5905 111.5668 C 20.5739 113.1406 22.6329 113.6268 24.2059 112.6449 Z M 34.9792 99.563 L 34.9792 99.563 C 36.5434 98.5859 37.0225 96.5211 36.0465 94.9448 L 28.0332 82.0769 C 27.0592 80.5124 24.9908 80.0283 23.419 81.006 C 21.8554 81.9876 21.3766 84.0501 22.3506 85.6145 L 30.3656 98.4824 C 31.3435 100.0587 33.4083 100.5381 34.9792 99.563 Z M 48.6624 91.1628 L 48.6624 91.1628 C 50.2285 90.1928 50.7093 88.1189 49.7353 86.5542 L 38.8525 69.082 C 37.8797 67.513 35.8138 67.0357 34.2456 68.0131 C 32.6747 68.9905 32.1919 71.0549 33.1659 72.6197 L 44.0507 90.0964 C 45.023 91.6705 47.0931 92.1402 48.6624 91.1628 Z M 59.4833 78.1659 L 59.4833 78.1659 C 61.0569 77.1843 61.5302 75.1238 60.5574 73.55 L 52.5413 60.6818 C 51.5684 59.1151 49.5071 58.6383 47.9361 59.6154 C 46.3666 60.5925 45.8841 62.6528 46.8567 64.2197 L 54.868 77.0924 C 55.8476 78.6614 57.9124 79.143 59.4833 78.1659 Z M 66.9064 59.7141 L 66.9064 59.7141 C 68.4853 58.7324 68.9553 56.6793 67.983 55.1055 L 63.309 47.607 C 62.3367 46.0332 60.2719 45.5545 58.7021 46.531 C 57.1348 47.5087 56.6521 49.5709 57.6281 51.1376 L 62.3041 58.6431 C 63.2781 60.2144 65.3411 60.6915 66.9064 59.7141 Z M 69.8712 33.3533 L 69.8712 33.3533 C 71.4404 32.3762 71.9155 30.314 70.9379 28.7416 L 69.9256 27.11 C 68.9479 25.5416 66.8812 25.0569 65.3176 26.0291 C 63.7458 27.0111 63.2633 29.0778 64.2484 30.6476 L 65.2589 32.273 C 66.2383 33.8465 68.2997 34.331 69.8712 33.3533 Z M 54.5108 1.5849 L 54.5108 1.5849 C 53.5348 .0108 51.4738 -.4725 49.9025 .5071 C 48.3256 1.4868 47.8522 3.549 48.8279 5.1157 C 58.7985 21.1337 51.2538 43.9194 32.008 55.8944 L 24.3592 60.6538 C 1.98 74.588 -6.5305 101.5038 5.3957 120.6524 C 6.3697 122.2217 8.4382 122.701 10.0111 121.7239 C 11.5753 120.7466 12.0563 118.6795 11.0784 117.1151 C 1.1047 101.0993 8.6528 78.3235 27.904 66.3386 L 35.5442 61.5796 C 57.9285 47.6357 66.433 20.7346 54.5108 1.5849 " fill="#ef4323"/>
<path transform="matrix(1,0,0,-1,1,160.1736)" d="M 69.8712 33.3533 C 71.4404 32.3762 71.9155 30.314 70.9379 28.7416 L 69.9256 27.11 C 68.9479 25.5416 66.8812 25.0569 65.3176 26.0291 C 63.7458 27.0111 63.2633 29.0778 64.2484 30.6476 L 65.2589 32.273 C 66.2383 33.8465 68.2997 34.331 69.8712 33.3533 " fill="#ef4323"/>
<path transform="matrix(1,0,0,-1,1,160.1736)" d="M 60.5574 73.55 L 52.5413 60.6818 C 51.5684 59.1151 49.5071 58.6383 47.9361 59.6154 C 46.3666 60.5925 45.8841 62.6528 46.8567 64.2197 L 54.868 77.0924 C 55.8476 78.6614 57.9124 79.143 59.4833 78.1659 C 61.0569 77.1843 61.5302 75.1238 60.5574 73.55 " fill="#ef4323"/>
<path transform="matrix(1,0,0,-1,1,160.1736)" d="M 67.983 55.1055 L 63.309 47.607 C 62.3367 46.0332 60.2719 45.5545 58.7021 46.531 C 57.1348 47.5087 56.6521 49.5709 57.6281 51.1376 L 62.3041 58.6431 C 63.2781 60.2144 65.3411 60.6915 66.9064 59.7141 C 68.4853 58.7324 68.9553 56.6793 67.983 55.1055 " fill="#ef4323"/>
<path transform="matrix(1,0,0,-1,1,160.1736)" d="M 49.9025 .5071 C 48.3256 1.4868 47.8522 3.549 48.8279 5.1157 C 58.7985 21.1337 51.2538 43.9194 32.008 55.8944 L 24.3592 60.6538 C 1.98 74.588 -6.5305 101.5038 5.3957 120.6524 C 6.3697 122.2217 8.4382 122.701 10.0111 121.7239 C 11.5753 120.7466 12.0563 118.6795 11.0784 117.1151 C 1.1047 101.0993 8.6528 78.3235 27.904 66.3386 L 35.5442 61.5796 C 57.9285 47.6357 66.433 20.7346 54.5108 1.5849 C 53.5348 .0108 51.4738 -.4725 49.9025 .5071 " fill="#ef4323"/>
<path transform="matrix(1,0,0,-1,1,160.1736)" d="M 16.8026 132.6376 C 18.3725 131.6554 18.8456 129.5977 17.8699 128.0333 L 16.8576 126.3986 C 15.878 124.829 13.8186 124.3474 12.2471 125.3268 C 10.6829 126.2996 10.1954 128.3666 11.1787 129.9407 L 12.191 131.5664 C 13.1686 133.1354 15.2351 133.6099 16.8026 132.6376 " fill="#ef4323"/>
<path transform="matrix(1,0,0,-1,1,160.1736)" d="M 72.8989 37.4457 C 71.331 38.4273 70.8545 40.4901 71.8245 42.054 C 81.7971 58.0768 74.2555 80.8503 55.0046 92.8406 L 47.3681 97.5943 C 24.9814 111.534 16.4693 138.4466 28.3955 157.5981 C 29.3675 159.1603 31.4416 159.6464 33.0077 158.667 C 34.5807 157.6899 35.0521 155.6226 34.0744 154.0514 C 24.1095 138.0427 31.6599 115.2618 50.904 103.2749 L 58.542 98.5153 C 80.93 84.581 89.4353 57.6703 77.5091 38.5166 C 76.5334 36.9522 74.4755 36.4683 72.8989 37.4457 " fill="#ef4323"/>
<path transform="matrix(1,0,0,-1,1,160.1736)" d="M 25.2734 108.0286 L 20.6084 100.531 C 19.6231 98.9595 17.564 98.4801 15.9942 99.4552 C 14.423 100.4394 13.9442 102.49 14.9182 104.0686 L 19.5905 111.5668 C 20.5739 113.1406 22.6329 113.6268 24.2059 112.6449 C 25.772 111.6677 26.2545 109.6007 25.2734 108.0286 " fill="#ef4323"/>
<path transform="matrix(1,0,0,-1,1,160.1736)" d="M 49.7353 86.5542 L 38.8525 69.082 C 37.8797 67.513 35.8138 67.0357 34.2456 68.0131 C 32.6747 68.9905 32.1919 71.0549 33.1659 72.6197 L 44.0507 90.0964 C 45.023 91.6705 47.0931 92.1402 48.6624 91.1628 C 50.2285 90.1928 50.7093 88.1189 49.7353 86.5542 " fill="#ef4323"/>
<path transform="matrix(1,0,0,-1,1,160.1736)" d="M 36.0465 94.9448 L 28.0332 82.0769 C 27.0592 80.5124 24.9908 80.0283 23.419 81.006 C 21.8554 81.9876 21.3766 84.0501 22.3506 85.6145 L 30.3656 98.4824 C 31.3435 100.0587 33.4083 100.5381 34.9792 99.563 C 36.5434 98.5859 37.0225 96.5211 36.0465 94.9448 " fill="#ef4323"/>
<path transform="matrix(1,0,0,-1,1,160.1736)" d="M 92.6623 53.5723 C 92.3856 53.7707 92.1889 54.1069 92.1889 54.5023 C 92.1889 55.1353 92.7037 55.6291 93.3364 55.6291 C 93.6723 55.6291 93.8894 55.5304 94.0467 55.4119 C 95.1942 54.5023 96.4213 53.9878 97.9243 53.9878 C 99.4277 53.9878 100.3762 54.7007 100.3762 55.7289 L 100.3762 55.7677 C 100.3762 56.7581 99.8235 57.2919 97.2524 57.8846 C 94.305 58.5975 92.6436 59.468 92.6436 62.0175 L 92.6436 62.0592 C 92.6436 64.4304 94.6205 66.073 97.3689 66.073 C 99.1106 66.073 100.5154 65.6184 101.7609 64.787 C 102.0373 64.6288 102.2953 64.2929 102.2953 63.8186 C 102.2953 63.1848 101.7811 62.6913 101.1484 62.6913 C 100.9108 62.6913 100.7118 62.7514 100.5154 62.8699 C 99.4462 63.5624 98.4178 63.9162 97.3304 63.9162 C 95.9068 63.9162 95.0749 63.1848 95.0749 62.276 L 95.0749 62.2369 C 95.0749 61.1668 95.7081 60.6926 98.3789 60.0596 C 101.3063 59.349 102.8095 58.2999 102.8095 56.0058 L 102.8095 55.9675 C 102.8095 53.3758 100.7711 51.8315 97.865 51.8315 C 95.9868 51.8315 94.2043 52.4248 92.6623 53.5723 " fill="#3d3d3d"/>
<path transform="matrix(1,0,0,-1,1,160.1736)" d="M 105.1061 54.9179 L 105.1061 60.4159 L 104.7107 60.4159 C 104.1372 60.4159 103.6826 60.8706 103.6826 61.4441 C 103.6826 62.0175 104.1372 62.4728 104.7107 62.4728 L 105.1061 62.4728 L 105.1061 64.2538 C 105.1061 64.9063 105.6404 65.4401 106.3125 65.4401 C 106.9662 65.4401 107.5005 64.9063 107.5005 64.2538 L 107.5005 62.4728 L 109.3791 62.4728 C 109.9522 62.4728 110.4276 62.0175 110.4276 61.4441 C 110.4276 60.8706 109.9522 60.4159 109.3791 60.4159 L 107.5005 60.4159 L 107.5005 55.2934 C 107.5005 54.3623 107.9734 53.9878 108.7846 53.9878 C 109.0636 53.9878 109.2986 54.0473 109.3791 54.0473 C 109.9137 54.0473 110.3865 53.6114 110.3865 53.0583 C 110.3865 52.6243 110.0917 52.2672 109.7555 52.1283 C 109.2393 51.9503 108.7461 51.8519 108.1128 51.8519 C 106.3534 51.8519 105.1061 52.6243 105.1061 54.9179 " fill="#3d3d3d"/>
<path transform="matrix(1,0,0,-1,1,160.1736)" d="M 112.0521 61.3851 C 112.0521 62.0592 112.5663 62.591 113.2379 62.591 C 113.9119 62.591 114.4446 62.0592 114.4446 61.3851 L 114.4446 60.3179 C 114.9999 61.6224 116.028 62.6117 117.0768 62.6117 C 117.8263 62.6117 118.2626 62.1179 118.2626 61.4259 C 118.2626 60.7924 117.847 60.3768 117.3118 60.279 C 115.6119 59.9814 114.4446 58.6746 114.4446 56.2025 L 114.4446 53.1173 C 114.4446 52.4639 113.9119 51.9318 113.2379 51.9318 C 112.5867 51.9318 112.0521 52.4463 112.0521 53.1173 Z " fill="#3d3d3d"/>
<path transform="matrix(1,0,0,-1,1,160.1736)" d="M 128.8074 53.1173 C 128.8074 52.4639 128.2728 51.9318 127.601 51.9318 C 126.9476 51.9318 126.3943 52.4463 126.3943 53.1173 L 126.3943 53.6522 C 125.7208 52.6635 124.7519 51.8128 123.1296 51.8128 C 120.7763 51.8128 119.412 53.394 119.412 55.8275 L 119.412 61.3851 C 119.412 62.0592 119.9463 62.591 120.5977 62.591 C 121.2715 62.591 121.8044 62.0592 121.8044 61.3851 L 121.8044 56.5404 C 121.8044 54.9179 122.6157 54.0094 124.0413 54.0094 C 125.4237 54.0094 126.3943 54.9567 126.3943 56.5787 L 126.3943 61.3851 C 126.3943 62.0592 126.9272 62.591 127.601 62.591 C 128.2524 62.591 128.8074 62.0592 128.8074 61.3851 Z " fill="#3d3d3d"/>
<path transform="matrix(1,0,0,-1,1,160.1736)" d="M 130.5306 57.1921 L 130.5306 57.2329 C 130.5306 60.1985 132.8244 62.6913 135.9686 62.6913 C 137.6113 62.6913 138.7378 62.157 139.629 61.3851 C 139.7866 61.2473 140.0034 60.9497 140.0034 60.5554 C 140.0034 59.9406 139.5105 59.468 138.8954 59.468 C 138.6011 59.468 138.3429 59.5865 138.185 59.7047 C 137.5702 60.2195 136.8986 60.594 135.9499 60.594 C 134.2091 60.594 132.9228 59.0905 132.9228 57.2715 L 132.9228 57.2329 C 132.9228 55.3728 134.2091 53.8897 136.0483 53.8897 C 136.997 53.8897 137.7306 54.2645 138.3814 54.8203 C 138.5209 54.9363 138.7587 55.0752 139.0348 55.0752 C 139.6083 55.0752 140.0632 54.6009 140.0632 54.0269 C 140.0632 53.7117 139.9442 53.4535 139.7273 53.2755 C 138.797 52.3871 137.6708 51.7929 135.9298 51.7929 C 132.8244 51.7929 130.5306 54.2265 130.5306 57.1921 " fill="#3d3d3d"/>
<path transform="matrix(1,0,0,-1,1,160.1736)" d="M 142.202 54.9179 L 142.202 60.4159 L 141.8068 60.4159 C 141.2334 60.4159 140.7784 60.8706 140.7784 61.4441 C 140.7784 62.0175 141.2334 62.4728 141.8068 62.4728 L 142.202 62.4728 L 142.202 64.2538 C 142.202 64.9063 142.7366 65.4401 143.4084 65.4401 C 144.0618 65.4401 144.5964 64.9063 144.5964 64.2538 L 144.5964 62.4728 L 146.4746 62.4728 C 147.0484 62.4728 147.5232 62.0175 147.5232 61.4441 C 147.5232 60.8706 147.0484 60.4159 146.4746 60.4159 L 144.5964 60.4159 L 144.5964 55.2934 C 144.5964 54.3623 145.0692 53.9878 145.8805 53.9878 C 146.1594 53.9878 146.3947 54.0473 146.4746 54.0473 C 147.0093 54.0473 147.4846 53.6114 147.4846 53.0583 C 147.4846 52.6243 147.1878 52.2672 146.8491 52.1283 C 146.3352 51.9503 145.842 51.8519 145.2087 51.8519 C 143.4495 51.8519 142.202 52.6243 142.202 54.9179 " fill="#3d3d3d"/>
<path transform="matrix(1,0,0,-1,1,160.1736)" d="M 158.4247 53.1173 C 158.4247 52.4639 157.8903 51.9318 157.2182 51.9318 C 156.5651 51.9318 156.0124 52.4463 156.0124 53.1173 L 156.0124 53.6522 C 155.3377 52.6635 154.3691 51.8128 152.7466 51.8128 C 150.3933 51.8128 149.0292 53.394 149.0292 55.8275 L 149.0292 61.3851 C 149.0292 62.0592 149.5641 62.591 150.2152 62.591 C 150.8893 62.591 151.4214 62.0592 151.4214 61.3851 L 151.4214 56.5404 C 151.4214 54.9179 152.2329 54.0094 153.6585 54.0094 C 155.0409 54.0094 156.0124 54.9567 156.0124 56.5787 L 156.0124 61.3851 C 156.0124 62.0592 156.5444 62.591 157.2182 62.591 C 157.8694 62.591 158.4247 62.0592 158.4247 61.3851 Z " fill="#3d3d3d"/>
<path transform="matrix(1,0,0,-1,1,160.1736)" d="M 160.7216 61.3851 C 160.7216 62.0592 161.2355 62.591 161.907 62.591 C 162.5811 62.591 163.1137 62.0592 163.1137 61.3851 L 163.1137 60.3179 C 163.6688 61.6224 164.6972 62.6117 165.746 62.6117 C 166.4952 62.6117 166.9317 62.1179 166.9317 61.4259 C 166.9317 60.7924 166.5159 60.3768 165.9813 60.279 C 164.2813 59.9814 163.1137 58.6746 163.1137 56.2025 L 163.1137 53.1173 C 163.1137 52.4639 162.5811 51.9318 161.907 51.9318 C 161.2559 51.9318 160.7216 52.4463 160.7216 53.1173 Z " fill="#3d3d3d"/>
<path transform="matrix(1,0,0,-1,1,160.1736)" d="M 167.0142 55.0375 L 167.0142 55.0752 C 167.0142 57.331 168.7734 58.4393 171.3254 58.4393 C 172.493 58.4393 173.3227 58.2608 174.134 58.0031 L 174.134 58.2608 C 174.134 59.7438 173.2243 60.535 171.5428 60.535 C 170.6335 60.535 169.8817 60.3768 169.2283 60.1186 C 169.0909 60.0795 168.9721 60.0596 168.8533 60.0596 C 168.3003 60.0596 167.8433 60.4959 167.8433 61.0483 C 167.8433 61.4849 168.1407 61.8593 168.497 61.9997 C 169.486 62.3741 170.4937 62.6117 171.8603 62.6117 C 173.4233 62.6117 174.5887 62.1961 175.322 61.4441 C 176.0919 60.6926 176.4485 59.5865 176.4485 58.2199 L 176.4485 53.0782 C 176.4485 52.4248 175.9343 51.9318 175.2806 51.9318 C 174.5887 51.9318 174.1133 52.4044 174.1133 52.9393 L 174.1133 53.3344 C 173.4026 52.4843 172.315 51.8128 170.7131 51.8128 C 168.755 51.8128 167.0142 52.9393 167.0142 55.0375 Z M 174.1725 55.7895 L 174.1725 55.7895 L 174.1725 56.4993 C 173.5603 56.7369 172.749 56.9154 171.8008 56.9154 C 170.2587 56.9154 169.3466 56.262 169.3466 55.1738 L 169.3466 55.1353 C 169.3466 54.1278 170.2383 53.5544 171.3852 53.5544 C 172.9661 53.5544 174.1725 54.4635 174.1725 55.7895 " fill="#3d3d3d"/>
<path transform="matrix(1,0,0,-1,1,160.1736)" d="M 178.7652 65.3805 C 178.7652 66.0339 179.2817 66.5671 179.9538 66.5671 C 180.6256 66.5671 181.1597 66.0339 181.1597 65.3805 L 181.1597 53.1173 C 181.1597 52.4463 180.6256 51.9318 179.9538 51.9318 C 179.3004 51.9318 178.7652 52.4463 178.7652 53.1173 Z " fill="#3d3d3d"/>
<path transform="matrix(1,0,0,-1,1,160.1736)" d="M 189.1117 64.65 C 189.1117 65.3426 189.646 65.8746 190.3385 65.8746 L 195.3218 65.8746 C 196.9053 65.8746 198.1508 65.4401 198.9411 64.65 C 199.5562 64.0355 199.8714 63.2835 199.8714 62.3554 L 199.8714 62.3146 C 199.8714 60.6535 198.9232 59.7645 197.8929 59.2294 C 199.5151 58.6746 200.6439 57.7468 200.6439 55.8666 L 200.6439 55.8275 C 200.6439 53.356 198.6055 52.0299 195.5208 52.0299 L 190.3385 52.0299 C 189.646 52.0299 189.1117 52.5648 189.1117 53.2573 Z M 194.8283 60.0409 L 194.8283 60.0409 C 196.3913 60.0409 197.4379 60.6535 197.4379 61.9189 L 197.4379 61.958 C 197.4379 63.0479 196.5674 63.72 195.0066 63.72 L 191.5038 63.72 L 191.5038 60.0409 Z M 195.539 54.1874 L 195.539 54.1874 C 197.2003 54.1874 198.2103 54.8379 198.2103 56.0857 L 198.2103 56.1249 C 198.2103 57.2919 197.2806 57.9844 195.3609 57.9844 L 191.5038 57.9844 L 191.5038 54.1874 Z " fill="#3d3d3d"/>
<path transform="matrix(1,0,0,-1,1,160.1736)" d="M 202.3892 65.2825 C 202.3892 65.9937 202.981 66.4475 203.7532 66.4475 C 204.5231 66.4475 205.1175 65.9937 205.1175 65.2825 L 205.1175 65.1634 C 205.1175 64.4511 204.5231 63.976 203.7532 63.976 C 202.981 63.976 202.3892 64.4511 202.3892 65.1634 Z M 202.5652 61.3851 L 202.5652 61.3851 C 202.5652 62.0592 203.0817 62.591 203.7532 62.591 C 204.4253 62.591 204.9599 62.0592 204.9599 61.3851 L 204.9599 53.1173 C 204.9599 52.4463 204.4253 51.9318 203.7532 51.9318 C 203.0995 51.9318 202.5652 52.4463 202.5652 53.1173 Z " fill="#3d3d3d"/>
<path transform="matrix(1,0,0,-1,1,160.1736)" d="M 206.82 57.1921 L 206.82 57.2329 C 206.82 60.2195 209.1937 62.6913 212.3974 62.6913 C 215.6006 62.6913 217.9545 60.2578 217.9545 57.2715 L 217.9545 57.2329 C 217.9545 54.2645 215.5827 51.7929 212.3586 51.7929 C 209.1733 51.7929 206.82 54.2265 206.82 57.1921 Z M 215.5615 57.1921 L 215.5615 57.1921 L 215.5615 57.2329 C 215.5615 59.0717 214.2369 60.594 212.3586 60.594 C 210.4396 60.594 209.2124 59.0905 209.2124 57.2715 L 209.2124 57.2329 C 209.2124 55.4119 210.5371 53.8897 212.3974 53.8897 C 214.3352 53.8897 215.5615 55.3932 215.5615 57.1921 " fill="#3d3d3d"/>
<path transform="matrix(1,0,0,-1,1,160.1736)" d="M 219.6609 65.2825 C 219.6609 65.9937 220.2534 66.4475 221.0255 66.4475 C 221.7949 66.4475 222.3893 65.9937 222.3893 65.2825 L 222.3893 65.1634 C 222.3893 64.4511 221.7949 63.976 221.0255 63.976 C 220.2534 63.976 219.6609 64.4511 219.6609 65.1634 Z M 219.837 61.3851 L 219.837 61.3851 C 219.837 62.0592 220.3532 62.591 221.0255 62.591 C 221.6968 62.591 222.2314 62.0592 222.2314 61.3851 L 222.2314 53.1173 C 222.2314 52.4463 221.6968 51.9318 221.0255 51.9318 C 220.3719 51.9318 219.837 52.4463 219.837 53.1173 Z " fill="#3d3d3d"/>
<path transform="matrix(1,0,0,-1,1,160.1736)" d="M 224.6649 61.3851 C 224.6649 62.0592 225.1794 62.591 225.8507 62.591 C 226.5245 62.591 227.058 62.0592 227.058 61.3851 L 227.058 60.8706 C 227.7317 61.842 228.7006 62.6913 230.3226 62.6913 C 232.6768 62.6913 234.04 61.1079 234.04 58.6953 L 234.04 53.1173 C 234.04 52.4463 233.5255 51.9318 232.8545 51.9318 C 232.1807 51.9318 231.6472 52.4463 231.6472 53.1173 L 231.6472 57.9637 C 231.6472 59.5865 230.8365 60.5163 229.4104 60.5163 C 228.0266 60.5163 227.058 59.5449 227.058 57.9254 L 227.058 53.1173 C 227.058 52.4463 226.5245 51.9318 225.8507 51.9318 C 225.1998 51.9318 224.6649 52.4463 224.6649 53.1173 Z " fill="#3d3d3d"/>
<path transform="matrix(1,0,0,-1,1,160.1736)" d="M 236.776 60.4159 L 236.3593 60.4159 C 235.8043 60.4159 235.3493 60.8519 235.3493 61.4055 C 235.3493 61.958 235.8043 62.4149 236.3593 62.4149 L 236.776 62.4149 L 236.776 63.1848 C 236.776 64.332 237.0699 65.2025 237.6247 65.7561 C 238.1786 66.3111 238.9507 66.5875 239.9788 66.5875 C 240.4542 66.5875 240.8494 66.5484 241.1847 66.4892 C 241.6192 66.4299 242.0172 66.0339 242.0172 65.4999 C 242.0172 64.9463 241.5603 64.4896 241.0067 64.51 C 240.8678 64.5316 240.6713 64.5489 240.5132 64.5489 C 239.601 64.5489 239.1287 64.0556 239.1287 62.9685 L 239.1287 62.3945 L 240.9863 62.3945 C 241.5603 62.3945 241.9957 61.958 241.9957 61.4055 C 241.9957 60.8519 241.5416 60.4159 240.9863 60.4159 L 239.167 60.4159 L 239.167 53.1173 C 239.167 52.4639 238.6329 51.9318 237.9614 51.9318 C 237.3077 51.9318 236.776 52.4639 236.776 53.1173 Z " fill="#3d3d3d"/>
<path transform="matrix(1,0,0,-1,1,160.1736)" d="M 242.2157 57.1921 L 242.2157 57.2329 C 242.2157 60.2195 244.5897 62.6913 247.7928 62.6913 C 250.9968 62.6913 253.3504 60.2578 253.3504 57.2715 L 253.3504 57.2329 C 253.3504 54.2645 250.9781 51.7929 247.7548 51.7929 C 244.5693 51.7929 242.2157 54.2265 242.2157 57.1921 Z M 250.9577 57.1921 L 250.9577 57.1921 L 250.9577 57.2329 C 250.9577 59.0717 249.6328 60.594 247.7548 60.594 C 245.8346 60.594 244.6084 59.0905 244.6084 57.2715 L 244.6084 57.2329 C 244.6084 55.4119 245.9333 53.8897 247.7928 53.8897 C 249.7314 53.8897 250.9577 55.3932 250.9577 57.1921 " fill="#3d3d3d"/>
<path transform="matrix(1,0,0,-1,1,160.1736)" d="M 255.0932 61.3851 C 255.0932 62.0592 255.6079 62.591 256.2797 62.591 C 256.9538 62.591 257.4856 62.0592 257.4856 61.3851 L 257.4856 60.3179 C 258.0412 61.6224 259.069 62.6117 260.1176 62.6117 C 260.8679 62.6117 261.303 62.1179 261.303 61.4259 C 261.303 60.7924 260.8883 60.3768 260.3531 60.279 C 258.6532 59.9814 257.4856 58.6746 257.4856 56.2025 L 257.4856 53.1173 C 257.4856 52.4639 256.9538 51.9318 256.2797 51.9318 C 255.6283 51.9318 255.0932 52.4463 255.0932 53.1173 Z " fill="#3d3d3d"/>
<path transform="matrix(1,0,0,-1,1,160.1736)" d="M 262.5721 61.3851 C 262.5721 62.0592 263.0863 62.591 263.7581 62.591 C 264.4322 62.591 264.9643 62.0592 264.9643 61.3851 L 264.9643 60.891 C 265.638 61.8202 266.5477 62.6913 268.1498 62.6913 C 269.6533 62.6913 270.7203 61.958 271.2759 60.8519 C 272.1042 61.958 273.2134 62.6913 274.794 62.6913 C 277.0699 62.6913 278.4549 61.2473 278.4549 58.6953 L 278.4549 53.1173 C 278.4549 52.4463 277.9404 51.9318 277.2666 51.9318 C 276.5948 51.9318 276.0599 52.4463 276.0599 53.1173 L 276.0599 57.9637 C 276.0599 59.6256 275.2897 60.5163 273.9436 60.5163 C 272.6393 60.5163 271.7093 59.6052 271.7093 57.9254 L 271.7093 53.1173 C 271.7093 52.4463 271.175 51.9318 270.5238 51.9318 C 269.8498 51.9318 269.3166 52.4463 269.3166 53.1173 L 269.3166 57.9844 C 269.3166 59.6052 268.5243 60.5163 267.1994 60.5163 C 265.8736 60.5163 264.9643 59.527 264.9643 57.9254 L 264.9643 53.1173 C 264.9643 52.4463 264.4322 51.9318 263.7581 51.9318 C 263.1067 51.9318 262.5721 52.4463 262.5721 53.1173 Z " fill="#3d3d3d"/>
<path transform="matrix(1,0,0,-1,1,160.1736)" d="M 279.9831 55.0375 L 279.9831 55.0752 C 279.9831 57.331 281.7428 58.4393 284.2946 58.4393 C 285.4627 58.4393 286.2916 58.2608 287.1034 58.0031 L 287.1034 58.2608 C 287.1034 59.7438 286.1935 60.535 284.5117 60.535 C 283.6026 60.535 282.8506 60.3768 282.1972 60.1186 C 282.0606 60.0795 281.9412 60.0596 281.8227 60.0596 C 281.2694 60.0596 280.8128 60.4959 280.8128 61.0483 C 280.8128 61.4849 281.1095 61.8593 281.4667 61.9997 C 282.4557 62.3741 283.4631 62.6117 284.8294 62.6117 C 286.3928 62.6117 287.5584 62.1961 288.2911 61.4441 C 289.0607 60.6926 289.4176 59.5865 289.4176 58.2199 L 289.4176 53.0782 C 289.4176 52.4248 288.9031 51.9318 288.2497 51.9318 C 287.5584 51.9318 287.0853 52.4044 287.0853 52.9393 L 287.0853 53.3344 C 286.3715 52.4843 285.2841 51.8128 283.6834 51.8128 C 281.7241 51.8128 279.9831 52.9393 279.9831 55.0375 Z M 287.1417 55.7895 L 287.1417 55.7895 L 287.1417 56.4993 C 286.5291 56.7369 285.7181 56.9154 284.7708 56.9154 C 283.2276 56.9154 282.3157 56.262 282.3157 55.1738 L 282.3157 55.1353 C 282.3157 54.1278 283.2075 53.5544 284.3541 53.5544 C 285.9358 53.5544 287.1417 54.4635 287.1417 55.7895 " fill="#3d3d3d"/>
<path transform="matrix(1,0,0,-1,1,160.1736)" d="M 291.99 54.9179 L 291.99 60.4159 L 291.5949 60.4159 C 291.0217 60.4159 290.5671 60.8706 290.5671 61.4441 C 290.5671 62.0175 291.0217 62.4728 291.5949 62.4728 L 291.99 62.4728 L 291.99 64.2538 C 291.99 64.9063 292.5252 65.4401 293.1973 65.4401 C 293.8507 65.4401 294.3845 64.9063 294.3845 64.2538 L 294.3845 62.4728 L 296.263 62.4728 C 296.8367 62.4728 297.3121 62.0175 297.3121 61.4441 C 297.3121 60.8706 296.8367 60.4159 296.263 60.4159 L 294.3845 60.4159 L 294.3845 55.2934 C 294.3845 54.3623 294.8587 53.9878 295.6697 53.9878 C 295.9475 53.9878 296.1833 54.0473 296.263 54.0473 C 296.7982 54.0473 297.2707 53.6114 297.2707 53.0583 C 297.2707 52.6243 296.9759 52.2672 296.64 52.1283 C 296.1244 51.9503 295.6306 51.8519 294.9976 51.8519 C 293.2381 51.8519 291.99 52.6243 291.99 54.9179 " fill="#3d3d3d"/>
<path transform="matrix(1,0,0,-1,1,160.1736)" d="M 298.8975 65.2825 C 298.8975 65.9937 299.4902 66.4475 300.2621 66.4475 C 301.0314 66.4475 301.6261 65.9937 301.6261 65.2825 L 301.6261 65.1634 C 301.6261 64.4511 301.0314 63.976 300.2621 63.976 C 299.4902 63.976 298.8975 64.4511 298.8975 65.1634 Z M 299.0735 61.3851 L 299.0735 61.3851 C 299.0735 62.0592 299.59 62.591 300.2621 62.591 C 300.9336 62.591 301.4685 62.0592 301.4685 61.3851 L 301.4685 53.1173 C 301.4685 52.4463 300.9336 51.9318 300.2621 51.9318 C 299.6084 51.9318 299.0735 52.4463 299.0735 53.1173 Z " fill="#3d3d3d"/>
<path transform="matrix(1,0,0,-1,1,160.1736)" d="M 303.3278 57.1921 L 303.3278 57.2329 C 303.3278 60.1985 305.6224 62.6913 308.7666 62.6913 C 310.4101 62.6913 311.5363 62.157 312.427 61.3851 C 312.5852 61.2473 312.8012 60.9497 312.8012 60.5554 C 312.8012 59.9406 312.3088 59.468 311.6945 59.468 C 311.3986 59.468 311.1401 59.5865 310.9819 59.7047 C 310.3676 60.2195 309.6961 60.594 308.7488 60.594 C 307.0077 60.594 305.7199 59.0905 305.7199 57.2715 L 305.7199 57.2329 C 305.7199 55.3728 307.0077 53.8897 308.846 53.8897 C 309.7953 53.8897 310.5286 54.2645 311.1786 54.8203 C 311.3186 54.9363 311.5559 55.0752 311.832 55.0752 C 312.4063 55.0752 312.8613 54.6009 312.8613 54.0269 C 312.8613 53.7117 312.7428 53.4535 312.5245 53.2755 C 311.595 52.3871 310.4685 51.7929 308.7275 51.7929 C 305.6224 51.7929 303.3278 54.2265 303.3278 57.1921 " fill="#3d3d3d"/>
<path transform="matrix(1,0,0,-1,1,160.1736)" d="M 314.1133 53.0782 C 313.8548 53.2159 313.6584 53.5133 313.6584 53.9084 C 313.6584 54.4431 314.0725 54.877 314.6267 54.877 C 314.8234 54.877 315.0026 54.8203 315.1409 54.7398 C 316.1483 54.0683 317.1986 53.7304 318.1479 53.7304 C 319.1771 53.7304 319.7684 54.167 319.7684 54.8583 L 319.7684 54.8974 C 319.7684 55.7084 318.6638 55.9848 317.4361 56.3624 C 315.8935 56.7958 314.1717 57.4294 314.1717 59.4258 L 314.1717 59.468 C 314.1717 61.4441 315.8135 62.6505 317.8894 62.6505 C 318.9977 62.6505 320.1653 62.335 321.173 61.8004 C 321.5095 61.6224 321.747 61.3069 321.747 60.891 C 321.747 60.3386 321.3128 59.9219 320.7586 59.9219 C 320.5621 59.9219 320.4431 59.961 320.2855 60.0409 C 319.432 60.4755 318.5626 60.7521 317.831 60.7521 C 316.9009 60.7521 316.3677 60.3179 316.3677 59.7234 L 316.3677 59.6849 C 316.3677 58.9124 317.4942 58.5975 318.7219 58.2015 C 320.2432 57.727 321.9647 57.0345 321.9647 55.156 L 321.9647 55.1143 C 321.9647 52.9209 320.2645 51.8315 318.0895 51.8315 C 316.7626 51.8315 315.3195 52.2468 314.1133 53.0782 " fill="#3d3d3d"/>
<path transform="matrix(1,0,0,-1,1,160.1736)" d="M 328.2766 55.0375 L 328.2766 55.0752 C 328.2766 57.331 330.0375 58.4393 332.5895 58.4393 C 333.7563 58.4393 334.5854 58.2608 335.397 58.0031 L 335.397 58.2608 C 335.397 59.7438 334.4879 60.535 332.8053 60.535 C 331.897 60.535 331.1442 60.3768 330.4928 60.1186 C 330.3544 60.0795 330.2354 60.0596 330.1169 60.0596 C 329.5644 60.0596 329.1075 60.4959 329.1075 61.0483 C 329.1075 61.4849 329.4034 61.8593 329.7611 61.9997 C 330.7493 62.3741 331.757 62.6117 333.1244 62.6117 C 334.6863 62.6117 335.8519 62.1961 336.5847 61.4441 C 337.3554 60.6926 337.7115 59.5865 337.7115 58.2199 L 337.7115 53.0782 C 337.7115 52.4248 337.1978 51.9318 336.5447 51.9318 C 335.8519 51.9318 335.3788 52.4044 335.3788 52.9393 L 335.3788 53.3344 C 334.6673 52.4843 333.5777 51.8128 331.977 51.8128 C 330.0177 51.8128 328.2766 52.9393 328.2766 55.0375 Z M 335.4352 55.7895 L 335.4352 55.7895 L 335.4352 56.4993 C 334.8247 56.7369 334.0137 56.9154 333.0643 56.9154 C 331.5212 56.9154 330.611 56.262 330.611 55.1738 L 330.611 55.1353 C 330.611 54.1278 331.5019 53.5544 332.6479 53.5544 C 334.2294 53.5544 335.4352 54.4635 335.4352 55.7895 " fill="#3d3d3d"/>
<path transform="matrix(1,0,0,-1,1,160.1736)" d="M 339.8919 61.3851 C 339.8919 62.0592 340.4052 62.591 341.0785 62.591 C 341.7514 62.591 342.2843 62.0592 342.2843 61.3851 L 342.2843 60.8706 C 342.9573 61.842 343.9261 62.6913 345.5487 62.6913 C 347.9023 62.6913 349.2663 61.1079 349.2663 58.6953 L 349.2663 53.1173 C 349.2663 52.4463 348.7524 51.9318 348.0814 51.9318 C 347.4065 51.9318 346.875 52.4463 346.875 53.1173 L 346.875 57.9637 C 346.875 59.5865 346.064 60.5163 344.6379 60.5163 C 343.2529 60.5163 342.2843 59.5449 342.2843 57.9254 L 342.2843 53.1173 C 342.2843 52.4463 341.7514 51.9318 341.0785 51.9318 C 340.4262 51.9318 339.8919 52.4463 339.8919 53.1173 Z " fill="#3d3d3d"/>
<path transform="matrix(1,0,0,-1,1,160.1736)" d="M 361.7291 53.1173 C 361.7291 52.4463 361.1965 51.9318 360.5423 51.9318 C 359.8716 51.9318 359.3364 52.4463 359.3364 53.1173 L 359.3364 53.7707 C 358.5645 52.6839 357.4772 51.8128 355.7764 51.8128 C 353.3253 51.8128 350.9308 53.7707 350.9308 57.2329 L 350.9308 57.2715 C 350.9308 60.7334 353.2844 62.6913 355.7764 62.6913 C 357.4981 62.6913 358.5855 61.842 359.3364 60.8519 L 359.3364 65.3805 C 359.3364 66.0523 359.8716 66.5671 360.523 66.5671 C 361.1965 66.5671 361.7291 66.0523 361.7291 65.3805 Z M 353.3428 57.2715 L 353.3428 57.2715 L 353.3428 57.2329 C 353.3428 55.2155 354.7281 53.8897 356.3504 53.8897 C 357.9514 53.8897 359.3755 55.2328 359.3755 57.2329 L 359.3755 57.2715 C 359.3755 59.2889 357.9514 60.6144 356.3504 60.6144 C 354.7106 60.6144 353.3428 59.349 353.3428 57.2715 " fill="#3d3d3d"/>
<path transform="matrix(1,0,0,-1,1,160.1736)" d="M 92.4063 35.1689 L 92.4063 35.2111 C 92.4063 39.145 95.3518 42.3697 99.5465 42.3697 C 101.6807 42.3697 103.0861 41.7368 104.2929 40.8067 C 104.5505 40.6103 104.7677 40.2746 104.7677 39.8375 C 104.7677 39.1654 104.233 38.6521 103.5612 38.6521 C 103.2259 38.6521 102.9881 38.7706 102.8302 38.8896 C 101.8794 39.6595 100.8513 40.1346 99.5261 40.1346 C 96.8961 40.1346 94.9564 37.9596 94.9564 35.2497 L 94.9564 35.2111 C 94.9564 32.5009 96.8757 30.3049 99.5261 30.3049 C 100.9908 30.3049 101.9781 30.7806 102.9881 31.6298 C 103.1661 31.788 103.4223 31.9071 103.7188 31.9071 C 104.3311 31.9071 104.866 31.3926 104.866 30.7806 C 104.866 30.403 104.6877 30.1054 104.4709 29.91 C 103.1661 28.7623 101.6807 28.0494 99.4462 28.0494 C 95.4113 28.0494 92.4063 31.1941 92.4063 35.1689 " fill="#3d3d3d"/>
<path transform="matrix(1,0,0,-1,1,160.1736)" d="M 105.8805 33.4485 L 105.8805 33.4899 C 105.8805 36.4765 108.2546 38.9486 111.458 38.9486 C 114.6614 38.9486 117.0147 36.5151 117.0147 33.529 L 117.0147 33.4899 C 117.0147 30.522 114.6433 28.0494 111.4194 28.0494 C 108.2341 28.0494 105.8805 30.4829 105.8805 33.4485 Z M 114.6226 33.4485 L 114.6226 33.4485 L 114.6226 33.4899 C 114.6226 35.3296 113.2974 36.851 111.4194 36.851 C 109.4998 36.851 108.2727 35.348 108.2727 33.529 L 108.2727 33.4899 C 108.2727 31.6684 109.5982 30.1476 111.458 30.1476 C 113.3955 30.1476 114.6226 31.6511 114.6226 33.4485 " fill="#3d3d3d"/>
<path transform="matrix(1,0,0,-1,1,160.1736)" d="M 118.7586 37.6415 C 118.7586 38.3156 119.2725 38.8488 119.9443 38.8488 C 120.6184 38.8488 121.1508 38.3156 121.1508 37.6415 L 121.1508 37.1486 C 121.8249 38.0781 122.7342 38.9486 124.3361 38.9486 C 125.8393 38.9486 126.9062 38.2156 127.4615 37.1095 C 128.291 38.2156 129.399 38.9486 130.9805 38.9486 C 133.2561 38.9486 134.6411 37.5046 134.6411 34.952 L 134.6411 29.3751 C 134.6411 28.7031 134.1266 28.1894 133.4526 28.1894 C 132.7813 28.1894 132.2461 28.7031 132.2461 29.3751 L 132.2461 34.221 C 132.2461 35.8818 131.4765 36.7741 130.1306 36.7741 C 128.8259 36.7741 127.8958 35.8614 127.8958 34.1824 L 127.8958 29.3751 C 127.8958 28.7031 127.3612 28.1894 126.7098 28.1894 C 126.036 28.1894 125.5039 28.7031 125.5039 29.3751 L 125.5039 34.242 C 125.5039 35.8614 124.7108 36.7741 123.3853 36.7741 C 122.0604 36.7741 121.1508 35.784 121.1508 34.1824 L 121.1508 29.3751 C 121.1508 28.7031 120.6184 28.1894 119.9443 28.1894 C 119.2929 28.1894 118.7586 28.7031 118.7586 29.3751 Z " fill="#3d3d3d"/>
<path transform="matrix(1,0,0,-1,1,160.1736)" d="M 136.8621 37.6415 C 136.8621 38.3156 137.3763 38.8488 138.0481 38.8488 C 138.7219 38.8488 139.2545 38.3156 139.2545 37.6415 L 139.2545 36.9904 C 140.0267 38.0781 141.114 38.9486 142.8143 38.9486 C 145.2682 38.9486 147.6607 37.0086 147.6607 33.529 L 147.6607 33.4899 C 147.6607 30.0285 145.2864 28.0698 142.8143 28.0698 C 141.0758 28.0698 139.9876 28.9409 139.2545 29.91 L 139.2545 26.21 C 139.2545 25.539 138.7219 25.0243 138.0481 25.0243 C 137.3967 25.0243 136.8621 25.539 136.8621 26.21 Z M 145.2271 33.4899 L 145.2271 33.4899 L 145.2271 33.529 C 145.2271 35.5465 143.8628 36.8719 142.2405 36.8719 C 140.6211 36.8719 139.1947 35.526 139.1947 33.529 L 139.1947 33.4899 C 139.1947 31.4906 140.6211 30.1476 142.2405 30.1476 C 143.8838 30.1476 145.2271 31.4314 145.2271 33.4899 " fill="#3d3d3d"/>
<path transform="matrix(1,0,0,-1,1,160.1736)" d="M 158.722 29.3751 C 158.722 28.7215 158.1877 28.1894 157.5153 28.1894 C 156.8616 28.1894 156.3092 28.7031 156.3092 29.3751 L 156.3092 29.91 C 155.6351 28.9199 154.6662 28.0698 153.0437 28.0698 C 150.6903 28.0698 149.3263 29.6515 149.3263 32.0851 L 149.3263 37.6415 C 149.3263 38.3156 149.8612 38.8488 150.512 38.8488 C 151.1864 38.8488 151.7185 38.3156 151.7185 37.6415 L 151.7185 32.7974 C 151.7185 31.1754 152.5297 30.2658 153.9553 30.2658 C 155.3377 30.2658 156.3092 31.2146 156.3092 32.8365 L 156.3092 37.6415 C 156.3092 38.3156 156.8415 38.8488 157.5153 38.8488 C 158.1667 38.8488 158.722 38.3156 158.722 37.6415 Z " fill="#3d3d3d"/>
<path transform="matrix(1,0,0,-1,1,160.1736)" d="M 161.5119 31.1754 L 161.5119 36.6732 L 161.1164 36.6732 C 160.543 36.6732 160.0883 37.1282 160.0883 37.7011 C 160.0883 38.2745 160.543 38.7315 161.1164 38.7315 L 161.5119 38.7315 L 161.5119 40.5116 C 161.5119 41.1625 162.0468 41.6976 162.7186 41.6976 C 163.372 41.6976 163.9063 41.1625 163.9063 40.5116 L 163.9063 38.7315 L 165.7845 38.7315 C 166.358 38.7315 166.8334 38.2745 166.8334 37.7011 C 166.8334 37.1282 166.358 36.6732 165.7845 36.6732 L 163.9063 36.6732 L 163.9063 31.5499 C 163.9063 30.6198 164.3797 30.2454 165.191 30.2454 C 165.4693 30.2454 165.7049 30.3049 165.7845 30.3049 C 166.3194 30.3049 166.7923 29.8709 166.7923 29.3153 C 166.7923 28.8808 166.4974 28.525 166.1618 28.3861 C 165.6454 28.207 165.1518 28.1089 164.5186 28.1089 C 162.7597 28.1089 161.5119 28.8808 161.5119 31.1754 " fill="#3d3d3d"/>
<path transform="matrix(1,0,0,-1,1,160.1736)" d="M 167.7657 31.2939 L 167.7657 31.333 C 167.7657 33.5886 169.5251 34.6963 172.0774 34.6963 C 173.2448 34.6963 174.0747 34.5186 174.8857 34.2595 L 174.8857 34.5186 C 174.8857 36.0017 173.9764 36.7917 172.2946 36.7917 C 171.3852 36.7917 170.6335 36.6341 169.9798 36.3762 C 169.8426 36.337 169.7238 36.3166 169.6051 36.3166 C 169.0523 36.3166 168.5951 36.7526 168.5951 37.3062 C 168.5951 37.7427 168.8924 38.1172 169.2488 38.2561 C 170.2383 38.6311 171.2458 38.8692 172.6121 38.8692 C 174.1751 38.8692 175.3401 38.4525 176.0734 37.7011 C 176.8436 36.949 177.2002 35.843 177.2002 34.4778 L 177.2002 29.336 C 177.2002 28.6824 176.6863 28.1894 176.0323 28.1894 C 175.3401 28.1894 174.867 28.662 174.867 29.1971 L 174.867 29.592 C 174.1544 28.7419 173.0667 28.0698 171.4649 28.0698 C 169.507 28.0698 167.7657 29.1971 167.7657 31.2939 Z M 174.9243 32.046 L 174.9243 32.046 L 174.9243 32.7572 C 174.312 32.9947 173.5007 33.1724 172.5528 33.1724 C 171.0105 33.1724 170.0986 32.5185 170.0986 31.4314 L 170.0986 31.3926 C 170.0986 30.3843 170.9901 29.8114 172.1367 29.8114 C 173.7176 29.8114 174.9243 30.721 174.9243 32.046 " fill="#3d3d3d"/>
<path transform="matrix(1,0,0,-1,1,160.1736)" d="M 179.7732 31.1754 L 179.7732 36.6732 L 179.3775 36.6732 C 178.8043 36.6732 178.3497 37.1282 178.3497 37.7011 C 178.3497 38.2745 178.8043 38.7315 179.3775 38.7315 L 179.7732 38.7315 L 179.7732 40.5116 C 179.7732 41.1625 180.3076 41.6976 180.9797 41.6976 C 181.6328 41.6976 182.1677 41.1625 182.1677 40.5116 L 182.1677 38.7315 L 184.0459 38.7315 C 184.6191 38.7315 185.0947 38.2745 185.0947 37.7011 C 185.0947 37.1282 184.6191 36.6732 184.0459 36.6732 L 182.1677 36.6732 L 182.1677 31.5499 C 182.1677 30.6198 182.6405 30.2454 183.4517 30.2454 C 183.7307 30.2454 183.9657 30.3049 184.0459 30.3049 C 184.5808 30.3049 185.0539 29.8709 185.0539 29.3153 C 185.0539 28.8808 184.7585 28.525 184.4232 28.3861 C 183.9064 28.207 183.4126 28.1089 182.7799 28.1089 C 181.0208 28.1089 179.7732 28.8808 179.7732 31.1754 " fill="#3d3d3d"/>
<path transform="matrix(1,0,0,-1,1,160.1736)" d="M 186.6804 41.54 C 186.6804 42.2507 187.2723 42.7051 188.0444 42.7051 C 188.8146 42.7051 189.4088 42.2507 189.4088 41.54 L 189.4088 41.4213 C 189.4088 40.7081 188.8146 40.2324 188.0444 40.2324 C 187.2723 40.2324 186.6804 40.7081 186.6804 41.4213 Z M 186.8559 37.6415 L 186.8559 37.6415 C 186.8559 38.3156 187.3729 38.8488 188.0444 38.8488 C 188.7163 38.8488 189.2509 38.3156 189.2509 37.6415 L 189.2509 29.3751 C 189.2509 28.7031 188.7163 28.1894 188.0444 28.1894 C 187.3911 28.1894 186.8559 28.7031 186.8559 29.3751 Z " fill="#3d3d3d"/>
<path transform="matrix(1,0,0,-1,1,160.1736)" d="M 191.1107 33.4485 L 191.1107 33.4899 C 191.1107 36.4765 193.4853 38.9486 196.6884 38.9486 C 199.8921 38.9486 202.2452 36.5151 202.2452 33.529 L 202.2452 33.4899 C 202.2452 30.522 199.8734 28.0494 196.6493 28.0494 C 193.4646 28.0494 191.1107 30.4829 191.1107 33.4485 Z M 199.853 33.4485 L 199.853 33.4485 L 199.853 33.4899 C 199.853 35.3296 198.5275 36.851 196.6493 36.851 C 194.73 36.851 193.5031 35.348 193.5031 33.529 L 193.5031 33.4899 C 193.5031 31.6684 194.8283 30.1476 196.6884 30.1476 C 198.6259 30.1476 199.853 31.6511 199.853 33.4485 " fill="#3d3d3d"/>
<path transform="matrix(1,0,0,-1,1,160.1736)" d="M 203.991 37.6415 C 203.991 38.3156 204.5049 38.8488 205.1768 38.8488 C 205.8514 38.8488 206.3835 38.3156 206.3835 37.6415 L 206.3835 37.1282 C 207.0573 38.0968 208.0267 38.9486 209.6484 38.9486 C 212.0017 38.9486 213.3663 37.3657 213.3663 34.952 L 213.3663 29.3751 C 213.3663 28.7031 212.8518 28.1894 212.1806 28.1894 C 211.5057 28.1894 210.9736 28.7031 210.9736 29.3751 L 210.9736 34.221 C 210.9736 35.843 210.1623 36.7741 208.7365 36.7741 C 207.3521 36.7741 206.3835 35.8024 206.3835 34.1824 L 206.3835 29.3751 C 206.3835 28.7031 205.8514 28.1894 205.1768 28.1894 C 204.5259 28.1894 203.991 28.7031 203.991 29.3751 Z " fill="#3d3d3d"/>
<path transform="matrix(1,0,0,-1,1,160.1736)" d="M 214.8718 31.2939 L 214.8718 31.333 C 214.8718 33.5886 216.6313 34.6963 219.1836 34.6963 C 220.3515 34.6963 221.1803 34.5186 221.9916 34.2595 L 221.9916 34.5186 C 221.9916 36.0017 221.082 36.7917 219.4004 36.7917 C 218.4908 36.7917 217.7393 36.6341 217.0854 36.3762 C 216.9493 36.337 216.8297 36.3166 216.7109 36.3166 C 216.1585 36.3166 215.7015 36.7526 215.7015 37.3062 C 215.7015 37.7427 215.9983 38.1172 216.3549 38.2561 C 217.3442 38.6311 218.3519 38.8692 219.7182 38.8692 C 221.2812 38.8692 222.4466 38.4525 223.1799 37.7011 C 223.9503 36.949 224.3064 35.843 224.3064 34.4778 L 224.3064 29.336 C 224.3064 28.6824 223.7919 28.1894 223.1391 28.1894 C 222.4466 28.1894 221.9737 28.662 221.9737 29.1971 L 221.9737 29.592 C 221.2608 28.7419 220.1726 28.0698 218.5716 28.0698 C 216.6126 28.0698 214.8718 29.1971 214.8718 31.2939 Z M 222.0307 32.046 L 222.0307 32.046 L 222.0307 32.7572 C 221.4187 32.9947 220.6074 33.1724 219.659 33.1724 C 218.1163 33.1724 217.2053 32.5185 217.2053 31.4314 L 217.2053 31.3926 C 217.2053 30.3843 218.0959 29.8114 219.2428 29.8114 C 220.8246 29.8114 222.0307 30.721 222.0307 32.046 " fill="#3d3d3d"/>
<path transform="matrix(1,0,0,-1,1,160.1736)" d="M 226.6228 41.6381 C 226.6228 42.2915 227.1402 42.8236 227.8114 42.8236 C 228.4835 42.8236 229.0181 42.2915 229.0181 41.6381 L 229.0181 29.3751 C 229.0181 28.7031 228.4835 28.1894 227.8114 28.1894 C 227.158 28.1894 226.6228 28.7031 226.6228 29.3751 Z " fill="#3d3d3d"/>
<path transform="matrix(1,0,0,-1,1,160.1736)" d="M 236.9713 40.9065 C 236.9713 41.599 237.5062 42.1316 238.199 42.1316 L 243.1823 42.1316 C 244.7657 42.1316 246.0107 41.6976 246.8018 40.9065 C 247.4164 40.2922 247.7313 39.5402 247.7313 38.6133 L 247.7313 38.5716 C 247.7313 36.9099 246.7834 36.0221 245.7524 35.4869 C 247.3747 34.9345 248.5037 34.0041 248.5037 32.1242 L 248.5037 32.0851 C 248.5037 29.6127 246.4654 28.2875 243.3807 28.2875 L 238.199 28.2875 C 237.5062 28.2875 236.9713 28.8215 236.9713 29.5138 Z M 242.6882 36.2988 L 242.6882 36.2988 C 244.2512 36.2988 245.2978 36.9099 245.2978 38.1767 L 245.2978 38.2156 C 245.2978 39.3055 244.4272 39.977 242.8662 39.977 L 239.3637 39.977 L 239.3637 36.2988 Z M 243.3994 30.4438 L 243.3994 30.4438 C 245.0611 30.4438 246.0702 31.0955 246.0702 32.3436 L 246.0702 32.3816 C 246.0702 33.5494 245.1404 34.242 243.2208 34.242 L 239.3637 34.242 L 239.3637 30.4438 Z " fill="#3d3d3d"/>
<path transform="matrix(1,0,0,-1,1,160.1736)" d="M 250.2473 41.54 C 250.2473 42.2507 250.8386 42.7051 251.6114 42.7051 C 252.3813 42.7051 252.9746 42.2507 252.9746 41.54 L 252.9746 41.4213 C 252.9746 40.7081 252.3813 40.2324 251.6114 40.2324 C 250.8386 40.2324 250.2473 40.7081 250.2473 41.4213 Z M 250.4228 37.6415 L 250.4228 37.6415 C 250.4228 38.3156 250.939 38.8488 251.6114 38.8488 C 252.2832 38.8488 252.8172 38.3156 252.8172 37.6415 L 252.8172 29.3751 C 252.8172 28.7031 252.2832 28.1894 251.6114 28.1894 C 250.9577 28.1894 250.4228 28.7031 250.4228 29.3751 Z " fill="#3d3d3d"/>
<path transform="matrix(1,0,0,-1,1,160.1736)" d="M 254.6796 33.4485 L 254.6796 33.4899 C 254.6796 36.4765 257.0536 38.9486 260.2579 38.9486 C 263.4608 38.9486 265.8141 36.5151 265.8141 33.529 L 265.8141 33.4899 C 265.8141 30.522 263.4426 28.0494 260.2188 28.0494 C 257.0332 28.0494 254.6796 30.4829 254.6796 33.4485 Z M 263.4216 33.4485 L 263.4216 33.4485 L 263.4216 33.4899 C 263.4216 35.3296 262.0967 36.851 260.2188 36.851 C 258.2986 36.851 257.0723 35.348 257.0723 33.529 L 257.0723 33.4899 C 257.0723 31.6684 258.3972 30.1476 260.2579 30.1476 C 262.1954 30.1476 263.4216 31.6511 263.4216 33.4485 " fill="#3d3d3d"/>
<path transform="matrix(1,0,0,-1,1,160.1736)" d="M 267.6949 41.6381 C 267.6949 42.2915 268.2119 42.8236 268.8826 42.8236 C 269.5547 42.8236 270.0899 42.2915 270.0899 41.6381 L 270.0899 29.3751 C 270.0899 28.7031 269.5547 28.1894 268.8826 28.1894 C 268.2292 28.1894 267.6949 28.7031 267.6949 29.3751 Z " fill="#3d3d3d"/>
<path transform="matrix(1,0,0,-1,1,160.1736)" d="M 271.9517 33.4485 L 271.9517 33.4899 C 271.9517 36.4765 274.3254 38.9486 277.5291 38.9486 C 280.732 38.9486 283.0864 36.5151 283.0864 33.529 L 283.0864 33.4899 C 283.0864 30.522 280.7147 28.0494 277.4906 28.0494 C 274.305 28.0494 271.9517 30.4829 271.9517 33.4485 Z M 280.6943 33.4485 L 280.6943 33.4485 L 280.6943 33.4899 C 280.6943 35.3296 279.3688 36.851 277.4906 36.851 C 275.5712 36.851 274.3441 35.348 274.3441 33.529 L 274.3441 33.4899 C 274.3441 31.6684 275.6696 30.1476 277.5291 30.1476 C 279.4666 30.1476 280.6943 31.6511 280.6943 33.4485 " fill="#3d3d3d"/>
<path transform="matrix(1,0,0,-1,1,160.1736)" d="M 285.4414 26.0133 C 285.0262 26.1714 284.7708 26.5073 284.7708 26.962 C 284.7708 27.4969 285.2246 27.9507 285.7782 27.9507 C 285.9562 27.9507 286.0951 27.9125 286.2139 27.8529 C 287.1621 27.3189 288.2117 27.0215 289.4176 27.0215 C 291.5538 27.0215 292.7217 28.1302 292.7217 30.225 L 292.7217 31.0365 C 291.8511 29.91 290.7638 29.1189 289.0431 29.1189 C 286.5892 29.1189 284.2946 30.9382 284.2946 34.0041 L 284.2946 34.043 C 284.2946 37.1282 286.6096 38.9486 289.0431 38.9486 C 290.8029 38.9486 291.8903 38.1376 292.7013 37.169 L 292.7013 37.662 C 292.7013 38.3156 293.2362 38.8488 293.8873 38.8488 C 294.5614 38.8488 295.0931 38.3156 295.0931 37.6415 L 295.0931 30.4234 C 295.0931 28.662 294.6387 27.3569 293.7702 26.4864 C 292.8203 25.539 291.3554 25.0838 289.4771 25.0838 C 288.0153 25.0838 286.7083 25.399 285.4414 26.0133 Z M 292.7404 34.0226 L 292.7404 34.0226 L 292.7404 34.0634 C 292.7404 35.7636 291.3367 36.9315 289.6761 36.9315 C 288.0153 36.9315 286.7083 35.784 286.7083 34.0634 L 286.7083 34.0226 C 286.7083 32.3218 288.0326 31.155 289.6761 31.155 C 291.3367 31.155 292.7404 32.3218 292.7404 34.0226 " fill="#3d3d3d"/>
<path transform="matrix(1,0,0,-1,1,160.1736)" d="M 297.6506 25.3599 C 297.2942 25.4789 296.8985 25.7763 296.8985 26.35 C 296.8985 26.9416 297.3529 27.3396 297.8677 27.3396 C 298.0661 27.3396 298.1826 27.2974 298.3017 27.2582 C 298.5806 27.1791 298.7977 27.1196 299.1331 27.1196 C 299.8463 27.1196 300.2207 27.417 300.6162 28.2274 L 300.6961 28.4451 L 296.818 37.1095 C 296.7409 37.2875 296.6822 37.5231 296.6822 37.6832 C 296.6822 38.3545 297.1956 38.8488 297.8677 38.8488 C 298.4797 38.8488 298.815 38.4948 299.035 37.9392 L 301.843 30.9977 L 304.4557 37.9392 C 304.6504 38.4338 304.9872 38.8488 305.6017 38.8488 C 306.2358 38.8488 306.7492 38.3545 306.7492 37.7215 C 306.7492 37.5231 306.6891 37.2671 306.6483 37.1486 L 302.8331 27.9899 C 301.9411 25.854 300.9937 25.0634 299.3111 25.0634 C 298.6401 25.0634 298.1441 25.1614 297.6506 25.3599 " fill="#3d3d3d"/>
<path transform="matrix(1,0,0,-1,1,160.1736)" d="M 313.8531 41.0255 C 313.8531 41.6976 314.388 42.232 315.0808 42.232 C 315.7517 42.232 316.2866 41.6976 316.2866 41.0255 L 316.2866 30.5016 L 322.5563 30.5016 C 323.1694 30.5016 323.6647 30.0081 323.6647 29.3956 C 323.6647 28.781 323.1694 28.2875 322.5563 28.2875 L 315.0808 28.2875 C 314.388 28.2875 313.8531 28.8215 313.8531 29.5138 Z " fill="#3d3d3d"/>
<path transform="matrix(1,0,0,-1,1,160.1736)" d="M 324.4391 31.2939 L 324.4391 31.333 C 324.4391 33.5886 326.1974 34.6963 328.75 34.6963 C 329.9185 34.6963 330.7476 34.5186 331.5586 34.2595 L 331.5586 34.5186 C 331.5586 36.0017 330.6504 36.7917 328.9677 36.7917 C 328.0592 36.7917 327.3066 36.6341 326.6529 36.3762 C 326.5166 36.337 326.3975 36.3166 326.2791 36.3166 C 325.7249 36.3166 325.2679 36.7526 325.2679 37.3062 C 325.2679 37.7427 325.5656 38.1172 325.9216 38.2561 C 326.9115 38.6311 327.9192 38.8692 329.2843 38.8692 C 330.8488 38.8692 332.0135 38.4525 332.7471 37.7011 C 333.5179 36.949 333.8736 35.843 333.8736 34.4778 L 333.8736 29.336 C 333.8736 28.6824 333.3603 28.1894 332.7063 28.1894 C 332.0135 28.1894 331.541 28.662 331.541 29.1971 L 331.541 29.592 C 330.827 28.7419 329.7402 28.0698 328.1386 28.0698 C 326.1798 28.0698 324.4391 29.1971 324.4391 31.2939 Z M 331.5977 32.046 L 331.5977 32.046 L 331.5977 32.7572 C 330.9849 32.9947 330.1736 33.1724 329.226 33.1724 C 327.6833 33.1724 326.7714 32.5185 326.7714 31.4314 L 326.7714 31.3926 C 326.7714 30.3843 327.6624 29.8114 328.8101 29.8114 C 330.3916 29.8114 331.5977 30.721 331.5977 32.046 " fill="#3d3d3d"/>
<path transform="matrix(1,0,0,-1,1,160.1736)" d="M 336.0535 41.6381 C 336.0535 42.3102 336.5674 42.8236 337.2389 42.8236 C 337.9133 42.8236 338.4448 42.3102 338.4448 41.6381 L 338.4448 36.9904 C 339.2184 38.0781 340.306 38.9486 342.0048 38.9486 C 344.4596 38.9486 346.8521 37.0086 346.8521 33.529 L 346.8521 33.4899 C 346.8521 30.0285 344.4769 28.0698 342.0048 28.0698 C 340.2669 28.0698 339.1795 28.9409 338.4448 29.91 L 338.4448 29.3751 C 338.4448 28.7215 337.9133 28.1894 337.2389 28.1894 C 336.5884 28.1894 336.0535 28.7215 336.0535 29.3751 Z M 344.4185 33.4899 L 344.4185 33.4899 L 344.4185 33.529 C 344.4185 35.5465 343.0545 36.8719 341.4328 36.8719 C 339.8119 36.8719 338.3867 35.526 338.3867 33.529 L 338.3867 33.4899 C 338.3867 31.4906 339.8119 30.1476 341.4328 30.1476 C 343.0743 30.1476 344.4185 31.4314 344.4185 33.4899 " fill="#3d3d3d"/>
<path transform="matrix(1,0,0,-1,1,160.1736)" d="M 92.0225 86.9664 C 90.521 88.0248 89.4634 89.9643 89.4634 92.0803 C 89.4634 95.6086 92.285 98.3432 95.813 98.3432 C 97.577 98.3432 98.8109 97.7241 99.6928 97.1067 C 104.368 93.6686 109.4814 91.5525 115.4772 91.5525 C 121.0343 91.5525 124.384 93.7576 124.384 97.3723 L 124.384 97.5478 C 124.384 100.9874 122.2679 102.7505 111.9518 105.3969 C 99.5168 108.5703 91.4924 112.0119 91.4924 124.268 L 91.4924 124.4441 C 91.4924 135.6449 100.4879 143.0524 113.0961 143.0524 C 120.5932 143.0524 127.1188 141.1104 132.6736 137.5846 C 134.1726 136.7025 135.6715 134.8498 135.6715 132.2059 C 135.6715 128.6779 132.8496 125.9427 129.3239 125.9427 C 128.0013 125.9427 126.9431 126.2971 125.8849 126.9139 C 121.386 129.56 117.1545 131.0587 112.9207 131.0587 C 107.7177 131.0587 104.9848 128.6779 104.9848 125.6805 L 104.9848 125.5017 C 104.9848 121.4461 107.6309 120.1229 118.3017 117.3906 C 130.8226 114.1279 137.8766 109.6313 137.8766 98.871 L 137.8766 98.6956 C 137.8766 86.436 128.5288 79.5589 115.2147 79.5589 C 107.1009 79.5589 98.8999 82.029 92.0225 86.9664 " fill="#3d3d3d"/>
<path transform="matrix(1,0,0,-1,1,160.1736)" d="M 145.2796 135.3798 C 145.2796 139.1703 148.2775 142.1705 152.0702 142.1705 L 173.9395 142.1705 C 180.9935 142.1705 186.55 140.2305 190.0757 136.7025 C 192.9002 133.8809 194.3099 130.4419 194.3099 126.2081 L 194.3099 126.0317 C 194.3099 119.0653 190.6061 115.1855 186.196 112.7151 C 193.3387 109.9826 197.7489 105.838 197.7489 97.5478 L 197.7489 97.3723 C 197.7489 86.0845 188.5768 80.4407 174.6459 80.4407 L 152.0702 80.4407 C 148.2775 80.4407 145.2796 83.4386 145.2796 87.2314 Z M 171.0286 117.2143 L 171.0286 117.2143 C 177.0265 117.2143 180.8169 119.1543 180.8169 123.7399 L 180.8169 123.9163 C 180.8169 127.9721 177.6433 130.2639 171.9111 130.2639 L 158.5071 130.2639 L 158.5071 117.2143 Z M 174.6459 92.3457 L 174.6459 92.3457 C 180.6412 92.3457 184.2562 94.4612 184.2562 99.0473 L 184.2562 99.2234 C 184.2562 103.3679 181.1713 105.927 174.2049 105.927 L 158.5071 105.927 L 158.5071 92.3457 Z " fill="#3d3d3d"/>
<path transform="matrix(1,0,0,-1,1,160.1736)" d="M 201.7953 111.1294 L 201.7953 111.3063 C 201.7953 128.8536 215.0249 143.2284 233.9821 143.2284 C 243.2435 143.2284 249.5041 140.7586 254.6184 136.9678 C 256.0297 135.9074 257.2645 133.9676 257.2645 131.5865 C 257.2645 127.8828 254.266 124.9741 250.5628 124.9741 C 248.7093 124.9741 247.4759 125.6805 246.5045 126.2971 C 242.714 129.119 238.7455 130.7049 233.8957 130.7049 C 223.4908 130.7049 215.9938 122.0632 215.9938 111.4818 L 215.9938 111.3063 C 215.9938 100.7246 223.3128 91.9043 233.8957 91.9043 C 239.6271 91.9043 243.4198 93.6686 247.299 96.7558 C 248.3578 97.6377 249.7674 98.2551 251.3551 98.2551 C 254.7938 98.2551 257.7053 95.4326 257.7053 91.9939 C 257.7053 89.8773 256.6471 88.2 255.4112 87.1432 C 249.8559 82.2917 243.3302 79.3826 233.4546 79.3826 C 215.2879 79.3826 201.7953 93.4036 201.7953 111.1294 " fill="#3d3d3d"/>
<path transform="matrix(1,0,0,-1,1,160.1736)" d="M 265.1927 135.3798 C 265.1927 139.1703 268.1901 142.1705 271.984 142.1705 L 293.8524 142.1705 C 300.9059 142.1705 306.464 140.2305 309.9881 136.7025 C 312.8139 133.8809 314.2233 130.4419 314.2233 126.2081 L 314.2233 126.0317 C 314.2233 119.0653 310.5196 115.1855 306.1097 112.7151 C 313.2527 109.9826 317.6609 105.838 317.6609 97.5478 L 317.6609 97.3723 C 317.6609 86.0845 308.49 80.4407 294.5594 80.4407 L 271.984 80.4407 C 268.1901 80.4407 265.1927 83.4386 265.1927 87.2314 Z M 290.9418 117.2143 L 290.9418 117.2143 C 296.9393 117.2143 300.7304 119.1543 300.7304 123.7399 L 300.7304 123.9163 C 300.7304 127.9721 297.5567 130.2639 291.8234 130.2639 L 278.42 130.2639 L 278.42 117.2143 Z M 294.5594 92.3457 L 294.5594 92.3457 C 300.5544 92.3457 304.1691 94.4612 304.1691 99.0473 L 304.1691 99.2234 C 304.1691 103.3679 301.085 105.927 294.1183 105.927 L 278.42 105.927 L 278.42 92.3457 Z " fill="#3d3d3d"/>
</g>
</g>
</g>
</svg>
